  0
SECTION
  2
HEADER
  9
$ACADVER
  1
AC1003
  9
$EXTMIN
 10
7.62386065389364E-9
 20
0.600394699303225
  9
$EXTMAX
 10
7.46868925248897
 20
0
  9
$INSUNITS
 70
1
  9
$INSBASE
 10
3.73434463005642
 20
0.300197349651613
999
Created with OMAX LAYOUT for Windows. (www.omax.com) 2/10/2024
  0
ENDSEC
  0
SECTION
  2
TABLES
  0
TABLE
  2
LAYER
 70
    10
  0
LAYER
  2
0
 70
     0
 62
     7
  6
CONTINUOUS
  0
LAYER
  2
1
 70
     0
 62
     7
  6
CONTINUOUS
  0
LAYER
  2
2
 70
     0
 62
     7
  6
CONTINUOUS
  0
LAYER
  2
3
 70
     0
 62
     7
  6
CONTINUOUS
  0
LAYER
  2
4
 70
     0
 62
     7
  6
CONTINUOUS
  0
LAYER
  2
5
 70
     0
 62
     7
  6
CONTINUOUS
  0
LAYER
  2
6
 70
     0
 62
     7
  6
CONTINUOUS
  0
LAYER
  2
7
 70
     0
 62
     7
  6
CONTINUOUS
  0
LAYER
  2
8
 70
     0
 62
     7
  6
CONTINUOUS
  0
LAYER
  2
9
 70
     0
 62
     7
  6
CONTINUOUS
  0
LAYER
  2
10
 70
     0
 62
     7
  6
CONTINUOUS
  0
LAYER
  2
11
 70
     0
 62
     7
  6
CONTINUOUS
  0
LAYER
  2
12
 70
     0
 62
     7
  6
CONTINUOUS
  0
LAYER
  2
13
 70
     0
 62
     7
  6
CONTINUOUS
  0
LAYER
  2
14
 70
     0
 62
     7
  6
CONTINUOUS
  0
LAYER
  2
15
 70
     0
 62
     7
  6
CONTINUOUS
  0
LAYER
  2
16
 70
     0
 62
     7
  6
CONTINUOUS
  0
LAYER
  2
17
 70
     0
 62
     7
  6
CONTINUOUS
  0
LAYER
  2
18
 70
     0
 62
     7
  6
CONTINUOUS
  0
LAYER
  2
19
 70
     0
 62
     7
  6
CONTINUOUS
  0
LAYER
  2
20
 70
     0
 62
     7
  6
CONTINUOUS
  0
LAYER
  2
21
 70
     0
 62
     7
  6
CONTINUOUS
  0
LAYER
  2
22
 70
     0
 62
     7
  6
CONTINUOUS
  0
LAYER
  2
23
 70
     0
 62
     7
  6
CONTINUOUS
  0
LAYER
  2
24
 70
     0
 62
     7
  6
CONTINUOUS
  0
LAYER
  2
25
 70
     0
 62
     7
  6
CONTINUOUS
  0
LAYER
  2
26
 70
     0
 62
     7
  6
CONTINUOUS
  0
LAYER
  2
27
 70
     0
 62
     7
  6
CONTINUOUS
  0
LAYER
  2
28
 70
     0
 62
     7
  6
CONTINUOUS
  0
LAYER
  2
29
 70
     0
 62
     7
  6
CONTINUOUS
  0
LAYER
  2
30
 70
     0
 62
     7
  6
CONTINUOUS
  0
LAYER
  2
31
 70
     0
 62
     7
  6
CONTINUOUS
  0
ENDTAB
  0
ENDSEC
  0
SECTION
  2
ENTITIES
  0
ARC
  8
1
  6
CONTINUOUS
 62
1
 10
0.228596332125963
 20
0.220070269080976
 30
0.0
 40
0.220070269080978
 50
204.38683723701
 51
269.999999999999
  0
ARC
  8
1
  6
CONTINUOUS
 62
1
 10
0.228596374870624
 20
0.380295667149703
 30
0.0
 40
0.220070311825633
 50
35.6800299999897
 51
155.613174782251
  0
ARC
  8
1
  6
CONTINUOUS
 62
1
 10
0.533125477745902
 20
0.300182955916639
 30
0.0
 40
0.53312547012204
 50
161.294134617644
 51
198.705865382356
  0
ARC
  8
1
  6
CONTINUOUS
 62
1
 10
0.66809025632647
 20
0.178844396934839
 30
0.0
 40
0.178056947717966
 50
196.004825930423
 51
267.948379947905
  0
ARC
  8
1
  6
CONTINUOUS
 62
1
 10
1.00189943865962
 20
0.30072963571011
 30
0.0
 40
0.533125470122016
 50
161.294116943038
 51
198.705883056962
  0
ARC
  8
1
  6
CONTINUOUS
 62
1
 10
0.668090279888073
 20
0.422216971816182
 30
0.0
 40
0.178167089951313
 50
16.1288893758951
 51
163.872176621307
  0
ARC
  8
1
  6
CONTINUOUS
 62
1
 10
0.334281278519003
 20
0.300729635692117
 30
0.0
 40
0.533125470121961
 50
341.293755627024
 51
18.7062443729764
  0
ARC
  8
1
  6
CONTINUOUS
 62
1
 10
0.66809025632644
 20
0.178844396934868
 30
0.0
 40
0.17805694771799
 50
272.763973435186
 51
343.994108060195
  0
ARC
  8
1
  6
CONTINUOUS
 62
1
 10
0.228596332125964
 20
0.220070269080975
 30
0.0
 40
0.220070269080975
 50
269.999999999999
 51
324.320000000004
  0
LINE
  8
1
  6
CONTINUOUS
 62
1
 10
0.947514082715466
 20
0.001940778175332
 30
0.0
 11
0.947514151776809
 21
0.600365905625964
 31
0.0
  0
LINE
  8
1
  6
CONTINUOUS
 62
1
 10
0.947514151776809
 20
0.600365905625964
 30
0.0
 11
1.31497572135916
 21
0.00194070506534016
 31
0.0
  0
LINE
  8
1
  6
CONTINUOUS
 62
1
 10
1.31497572135916
 20
0.00194070506534016
 30
0.0
 11
1.31497572135916
 21
0.600365905625964
 31
0.0
  0
LINE
  8
2
  6
CONTINUOUS
 62
2
 10
1.37481824143917
 20
0.600365978975332
 30
0.0
 11
1.59281599307196
 21
0.00194077841470142
 31
0.0
  0
LINE
  8
2
  6
CONTINUOUS
 62
2
 10
1.59281599307196
 20
0.00194077841470142
 30
0.0
 11
1.81081374470475
 21
0.600365978975332
 31
0.0
  0
LINE
  8
2
  6
CONTINUOUS
 62
2
 10
2.22803532818724
 20
0.00193454962032957
 30
0.0
 11
1.87710169271562
 21
0.00193454962032957
 31
0.0
  0
LINE
  8
2
  6
CONTINUOUS
 62
2
 10
1.87710169271562
 20
0.00193454962032957
 30
0.0
 11
1.8768879694297
 21
0.301147149900646
 31
0.0
  0
LINE
  8
2
  6
CONTINUOUS
 62
2
 10
1.8768879694297
 20
0.301147149900646
 30
0.0
 11
2.15109494525802
 21
0.301147149900646
 31
0.0
  0
LINE
  8
2
  6
CONTINUOUS
 62
2
 10
1.87687514964294
 20
0.31011847336332
 30
0.0
 11
1.87667424614379
 21
0.600359750180961
 31
0.0
  0
LINE
  8
2
  6
CONTINUOUS
 62
2
 10
1.87667424614379
 20
0.600359750180961
 30
0.0
 11
2.19811406814724
 21
0.600359750180961
 31
0.0
  0
LINE
  8
2
  6
CONTINUOUS
 62
2
 10
2.28787784826724
 20
0.00194077841470053
 30
0.0
 11
2.28787784826724
 21
0.600365978975332
 31
0.0
  0
LINE
  8
2
  6
CONTINUOUS
 62
2
 10
2.28787784826724
 20
0.600365978975332
 30
0.0
 11
2.50502070675641
 21
0.600365978975337
 31
0.0
  0
ARC
  8
2
  6
CONTINUOUS
 62
2
 10
2.50213745564427
 20
0.450759900310036
 30
0.0
 40
0.149633859505741
 50
271.095264000542
 51
88.8959160393194
  0
LINE
  8
2
  6
CONTINUOUS
 62
2
 10
2.50499767675989
 20
0.301153379577303
 30
0.0
 11
2.30751736049589
 21
0.301153379577303
 31
0.0
  0
LINE
  8
2
  6
CONTINUOUS
 62
2
 10
2.51352353835065
 20
0.284104181724218
 30
0.0
 11
2.65462700689654
 21
0.00194077841470053
 31
0.0
  0
ARC
  8
3
  6
CONTINUOUS
 62
3
 10
2.90874081802256
 20
0.174087076078841
 30
0.0
 40
0.172505168673584
 50
210.521999666259
 51
269.441063338051
  0
LINE
  8
3
  6
CONTINUOUS
 62
3
 10
2.90705800761887
 20
0.00159011561794964
 30
0.0
 11
2.96804048838499
 21
0.000995195445650854
 31
0.0
  0
ARC
  8
3
  6
CONTINUOUS
 62
3
 10
2.96957672281809
 20
0.158467439947653
 30
0.0
 40
0.15747973775928
 50
269.441063677774
 51
357.350682656727
  0
ARC
  8
3
  6
CONTINUOUS
 62
3
 10
2.99879265384106
 20
0.139570638035217
 30
0.0
 40
0.128621238142817
 50
5.18227244383303
 51
59.3448299999951
  0
LINE
  8
3
  6
CONTINUOUS
 62
3
 10
3.06437276280192
 20
0.250217247608551
 30
0.0
 11
2.82885220734313
 21
0.351371782205551
 31
0.0
  0
ARC
  8
3
  6
CONTINUOUS
 62
3
 10
2.89443235920637
 20
0.462018335891293
 30
0.0
 40
0.128621211940091
 50
185.182406440219
 51
239.34480086582
  0
ARC
  8
3
  6
CONTINUOUS
 62
3
 10
2.92301791629227
 20
0.443537509427569
 30
0.0
 40
0.156831219798622
 50
91.261343855055
 51
177.491952931066
  0
LINE
  8
3
  6
CONTINUOUS
 62
3
 10
2.91956561807896
 20
0.600330727203628
 30
0.0
 11
2.98040308479195
 21
0.600394699303225
 31
0.0
  0
ARC
  8
3
  6
CONTINUOUS
 62
3
 10
2.97496981501445
 20
0.433432161099513
 30
0.0
 40
0.167050919135158
 50
29.2717084966263
 51
88.136147107478
  0
LINE
  8
3
  6
CONTINUOUS
 62
3
 10
3.22930168669671
 20
0.00194077841470053
 30
0.0
 11
3.45371113690695
 21
0.600365978975332
 31
0.0
  0
LINE
  8
3
  6
CONTINUOUS
 62
3
 10
3.45371113690695
 20
0.600365978975332
 30
0.0
 11
3.67812058711719
 21
0.00194077841470053
 31
0.0
  0
LINE
  8
3
  6
CONTINUOUS
 62
3
 10
3.29534218205148
 20
0.130174749963408
 30
0.0
 11
3.61208009176243
 21
0.130174749963408
 31
0.0
  0
LINE
  8
3
  6
CONTINUOUS
 62
3
 10
3.98751318470989
 20
0.00194082011176588
 30
0.0
 11
3.98751318470989
 21
0.582215500568905
 31
0.0
  0
LINE
  8
3
  6
CONTINUOUS
 62
3
 10
3.79623080107175
 20
0.600366020672396
 30
0.0
 11
4.17879548285871
 21
0.600366020672396
 31
0.0
  0
LINE
  8
4
  6
CONTINUOUS
 62
4
 10
4.2717088449598
 20
0.00194073957627561
 30
0.0
 11
4.44268743363325
 21
0.00194073957627561
 31
0.0
  0
LINE
  8
4
  6
CONTINUOUS
 62
4
 10
4.35719811926745
 20
0.0198934953609062
 30
0.0
 11
4.35719811926745
 21
0.582413184112906
 31
0.0
  0
LINE
  8
4
  6
CONTINUOUS
 62
4
 10
4.2717088449598
 20
0.600365940136907
 30
0.0
 11
4.44178761057872
 21
0.600365940136907
 31
0.0
  0
ARC
  8
4
  6
CONTINUOUS
 62
4
 10
4.70409607122972
 20
0.178844396934839
 30
0.0
 40
0.178056947717966
 50
196.004825930423
 51
267.948379947905
  0
ARC
  8
4
  6
CONTINUOUS
 62
4
 10
5.03790525356287
 20
0.30072963571011
 30
0.0
 40
0.533125470122016
 50
161.294116943038
 51
198.705883056962
  0
ARC
  8
4
  6
CONTINUOUS
 62
4
 10
4.70409609479132
 20
0.422216971816182
 30
0.0
 40
0.178167089951313
 50
16.1288893758951
 51
163.872176621307
  0
ARC
  8
4
  6
CONTINUOUS
 62
4
 10
4.37028709342225
 20
0.300729635692117
 30
0.0
 40
0.533125470121961
 50
341.293755627024
 51
18.7062443729764
  0
ARC
  8
4
  6
CONTINUOUS
 62
4
 10
4.70409607122969
 20
0.178844396934868
 30
0.0
 40
0.17805694771799
 50
272.763973435186
 51
343.994108060195
  0
LINE
  8
4
  6
CONTINUOUS
 62
4
 10
4.98351989761871
 20
0.001940778175332
 30
0.0
 11
4.98351996668006
 21
0.600365905625964
 31
0.0
  0
LINE
  8
4
  6
CONTINUOUS
 62
4
 10
4.98351996668006
 20
0.600365905625964
 30
0.0
 11
5.3509815362624
 21
0.00194070506534016
 31
0.0
  0
LINE
  8
4
  6
CONTINUOUS
 62
4
 10
5.3509815362624
 20
0.00194070506534016
 30
0.0
 11
5.3509815362624
 21
0.600365905625964
 31
0.0
  0
LINE
  8
5
  6
CONTINUOUS
 62
5
 10
6.10373744674241
 20
0.600365978975332
 30
0.0
 11
6.32173519837522
 21
0.00194077841470142
 31
0.0
  0
LINE
  8
5
  6
CONTINUOUS
 62
5
 10
6.32173519837522
 20
0.00194077841470142
 30
0.0
 11
6.53973295000801
 21
0.600365978975332
 31
0.0
  0
ARC
  8
5
  6
CONTINUOUS
 62
5
 10
6.76855124858711
 20
0.149723209488158
 30
0.0
 40
0.146754055988785
 50
199.465441458891
 51
268.514572046558
  0
ARC
  8
5
  6
CONTINUOUS
 62
5
 10
7.18186605527054
 20
0.301405360681391
 30
0.0
 40
0.587014926811572
 50
160.019185139364
 51
199.980814860636
  0
ARC
  8
5
  6
CONTINUOUS
 62
5
 10
6.76922791765812
 20
0.452916653236647
 30
0.0
 40
0.147448999148978
 50
19.4473483225599
 51
160.559582801478
  0
ARC
  8
5
  6
CONTINUOUS
 62
5
 10
6.3565899577848
 20
0.301405361808126
 30
0.0
 40
0.587014926811527
 50
340.017438400847
 51
19.9825615991516
  0
ARC
  8
5
  6
CONTINUOUS
 62
5
 10
6.77038379472874
 20
0.148927479498053
 30
0.0
 40
0.146038227742582
 50
271.35498437542
 51
340.759261725191
  0
ARC
  8
5
  6
CONTINUOUS
 62
5
 10
7.02862245659306
 20
0.0366032843380864
 30
0.0
 40
0.0321998389424082
 50
95.9609022281219
 51
180.813903789562
  0
ARC
  8
5
  6
CONTINUOUS
 62
5
 10
7.03062159215433
 20
0.0361458913195479
 30
0.0
 40
0.0341957257463221
 50
179.999999999988
 51
359.999999999988
  0
ARC
  8
5
  6
CONTINUOUS
 62
5
 10
7.03345902997453
 20
0.0373478935674778
 30
0.0
 40
0.0313813165922284
 50
357.80485605802
 51
85.4203379242547
  0
ARC
  8
5
  6
CONTINUOUS
 62
5
 10
7.29363561647975
 20
0.149723209488148
 30
0.0
 40
0.146754055988775
 50
199.465441458888
 51
268.514572046555
  0
ARC
  8
5
  6
CONTINUOUS
 62
5
 10
7.70695042316319
 20
0.301405360681391
 30
0.0
 40
0.587014926811572
 50
160.019185139364
 51
199.980814860636
  0
ARC
  8
5
  6
CONTINUOUS
 62
5
 10
7.29431228555076
 20
0.452916653236647
 30
0.0
 40
0.147448999148978
 50
19.4473483225599
 51
160.559582801478
  0
ARC
  8
5
  6
CONTINUOUS
 62
5
 10
6.88167432567744
 20
0.301405361808126
 30
0.0
 40
0.587014926811527
 50
340.017438400847
 51
19.9825615991516
  0
ARC
  8
5
  6
CONTINUOUS
 62
5
 10
7.29546816262138
 20
0.148927479498053
 30
0.0
 40
0.146038227742582
 50
271.35498437542
 51
340.759261725191
  0
ENDSEC
  0
EOF
