  0
SECTION
  2
HEADER
  9
$ACADVER
  1
AC1003
  9
$EXTMIN
 10
1.06957341883263E-6
 20
0.652121999022052
  9
$EXTMAX
 10
8.71705630009268
 20
-0.00104654863758391
  9
$INSUNITS
 70
1
  9
$INSBASE
 10
4.35852868483305
 20
0.325537725192234
999
Created with OMAX LAYOUT for Windows. (www.omax.com) 2/9/2024
  0
ENDSEC
  0
SECTION
  2
TABLES
  0
TABLE
  2
LAYER
 70
    10
  0
LAYER
  2
0
 70
     0
 62
     7
  6
CONTINUOUS
  0
LAYER
  2
1
 70
     0
 62
     7
  6
CONTINUOUS
  0
LAYER
  2
2
 70
     0
 62
     7
  6
CONTINUOUS
  0
LAYER
  2
3
 70
     0
 62
     7
  6
CONTINUOUS
  0
LAYER
  2
4
 70
     0
 62
     7
  6
CONTINUOUS
  0
LAYER
  2
5
 70
     0
 62
     7
  6
CONTINUOUS
  0
LAYER
  2
6
 70
     0
 62
     7
  6
CONTINUOUS
  0
LAYER
  2
7
 70
     0
 62
     7
  6
CONTINUOUS
  0
LAYER
  2
8
 70
     0
 62
     7
  6
CONTINUOUS
  0
LAYER
  2
9
 70
     0
 62
     7
  6
CONTINUOUS
  0
LAYER
  2
10
 70
     0
 62
     7
  6
CONTINUOUS
  0
LAYER
  2
11
 70
     0
 62
     7
  6
CONTINUOUS
  0
LAYER
  2
12
 70
     0
 62
     7
  6
CONTINUOUS
  0
LAYER
  2
13
 70
     0
 62
     7
  6
CONTINUOUS
  0
LAYER
  2
14
 70
     0
 62
     7
  6
CONTINUOUS
  0
LAYER
  2
15
 70
     0
 62
     7
  6
CONTINUOUS
  0
LAYER
  2
16
 70
     0
 62
     7
  6
CONTINUOUS
  0
LAYER
  2
17
 70
     0
 62
     7
  6
CONTINUOUS
  0
LAYER
  2
18
 70
     0
 62
     7
  6
CONTINUOUS
  0
LAYER
  2
19
 70
     0
 62
     7
  6
CONTINUOUS
  0
LAYER
  2
20
 70
     0
 62
     7
  6
CONTINUOUS
  0
LAYER
  2
21
 70
     0
 62
     7
  6
CONTINUOUS
  0
LAYER
  2
22
 70
     0
 62
     7
  6
CONTINUOUS
  0
LAYER
  2
23
 70
     0
 62
     7
  6
CONTINUOUS
  0
LAYER
  2
24
 70
     0
 62
     7
  6
CONTINUOUS
  0
LAYER
  2
25
 70
     0
 62
     7
  6
CONTINUOUS
  0
LAYER
  2
26
 70
     0
 62
     7
  6
CONTINUOUS
  0
LAYER
  2
27
 70
     0
 62
     7
  6
CONTINUOUS
  0
LAYER
  2
28
 70
     0
 62
     7
  6
CONTINUOUS
  0
LAYER
  2
29
 70
     0
 62
     7
  6
CONTINUOUS
  0
LAYER
  2
30
 70
     0
 62
     7
  6
CONTINUOUS
  0
LAYER
  2
31
 70
     0
 62
     7
  6
CONTINUOUS
  0
ENDTAB
  0
ENDSEC
  0
SECTION
  2
ENTITIES
  0
ARC
  8
0
  6
CONTINUOUS
 62
0
 10
0.319550628456647
 20
0.238114850765676
 30
0.0
 40
0.145577168212088
 50
156.010782006873
 51
180.23350501869
  0
ARC
  8
0
  6
CONTINUOUS
 62
0
 10
0.287789880609831
 20
0.253193795540413
 30
0.0
 40
0.110432661036647
 50
127.280119123979
 51
156.458877098782
  0
ARC
  8
0
  6
CONTINUOUS
 62
0
 10
0.268580059238049
 20
0.278124717773053
 30
0.0
 40
0.0789601208942987
 50
103.577951307739
 51
127.146621759771
  0
LINE
  8
0
  6
CONTINUOUS
 62
0
 10
0.250042744565381
 20
0.354878015137849
 30
0.0
 11
0.250042744565424
 21
0.47676573636574
 31
0.0
  0
ARC
  8
0
  6
CONTINUOUS
 62
0
 10
0.263347637920348
 20
0.191286604559747
 30
0.0
 40
0.285789004133975
 50
92.6683667414677
 51
117.364352097287
  0
ARC
  8
0
  6
CONTINUOUS
 62
0
 10
0.24753213736076
 20
0.220204388958381
 30
0.0
 40
0.252838646533659
 50
117.193535850132
 51
147.048970088531
  0
ARC
  8
0
  6
CONTINUOUS
 62
0
 10
0.221383423346039
 20
0.237694703590297
 30
0.0
 40
0.22138342334604
 50
147.16643964619
 51
179.821897278193
  0
ARC
  8
0
  6
CONTINUOUS
 62
0
 10
0.221383423345001
 20
0.239071032775048
 30
0.0
 40
0.221383423345001
 50
180.178102721722
 51
212.833560353881
  0
ARC
  8
0
  6
CONTINUOUS
 62
0
 10
0.247532137360492
 20
0.256561347407153
 30
0.0
 40
0.252838646533367
 50
212.951029911472
 51
242.806464149895
  0
ARC
  8
0
  6
CONTINUOUS
 62
0
 10
0.263347637919979
 20
0.285479131804724
 30
0.0
 40
0.285789004132691
 50
242.635647902657
 51
267.331633258597
  0
LINE
  8
0
  6
CONTINUOUS
 62
0
 10
0.250042744565438
 20
0
 30
0.0
 11
0.250042744565424
 21
0.12016511015435
 31
0.0
  0
ARC
  8
0
  6
CONTINUOUS
 62
0
 10
0.268580059238163
 20
0.196918407519055
 30
0.0
 40
0.0789601208942278
 50
232.853378240113
 51
256.422048692196
  0
ARC
  8
0
  6
CONTINUOUS
 62
0
 10
0.287789880608906
 20
0.22184932975136
 30
0.0
 40
0.110432661035681
 50
203.541122901197
 51
232.719880876262
  0
ARC
  8
0
  6
CONTINUOUS
 62
0
 10
0.319550628455704
 20
0.236928274526197
 30
0.0
 40
0.145577168211147
 50
179.766494981131
 51
203.989217993152
  0
ARC
  8
0
  6
CONTINUOUS
 62
0
 10
0.267068420462949
 20
0.196918407519374
 30
0.0
 40
0.0789601208944768
 50
277.882425251735
 51
307.146621759742
  0
LINE
  8
0
  6
CONTINUOUS
 62
0
 10
0.277897067776867
 20
0.118704335326314
 30
0.0
 11
0.277897067776853
 21
0
 31
0.0
  0
ARC
  8
0
  6
CONTINUOUS
 62
0
 10
0.264592174422423
 20
0.285479131804488
 30
0.0
 40
0.285789004132449
 50
272.668366741382
 51
297.364352097323
  0
ARC
  8
0
  6
CONTINUOUS
 62
0
 10
0.280407674981984
 20
0.256561347407143
 30
0.0
 40
0.25283864653329
 50
297.193535850045
 51
327.048970088502
  0
ARC
  8
0
  6
CONTINUOUS
 62
0
 10
0.306556388995993
 20
0.239071032775106
 30
0.0
 40
0.221383423346203
 50
327.166439646282
 51
342.213023432758
  0
LINE
  8
0
  6
CONTINUOUS
 62
0
 10
0.517357430830945
 20
0.171443073366422
 30
0.0
 11
0.353896823334101
 21
0.189979843288764
 31
0.0
  0
ARC
  8
0
  6
CONTINUOUS
 62
0
 10
0.216097851246205
 20
0.236928274526541
 30
0.0
 40
0.145577168210434
 50
336.010782006548
 51
341.18590359708
  0
ARC
  8
0
  6
CONTINUOUS
 62
0
 10
0.247858599091725
 20
0.22184932975152
 30
0.0
 40
0.11043266103606
 50
307.280119123859
 51
336.458877098763
  0
ARC
  8
0
  6
CONTINUOUS
 62
0
 10
0.264592174421954
 20
0.19128660455999
 30
0.0
 40
0.285789004133732
 50
62.6356479026748
 51
87.331633258538
  0
LINE
  8
0
  6
CONTINUOUS
 62
0
 10
0.277897067776838
 20
0.47676573636574
 30
0.0
 11
0.277897067776853
 21
0.356338789965947
 31
0.0
  0
ARC
  8
0
  6
CONTINUOUS
 62
0
 10
0.267068420462853
 20
0.278124717772825
 30
0.0
 40
0.0789601208945494
 50
52.8533782402626
 51
82.1175747482127
  0
ARC
  8
0
  6
CONTINUOUS
 62
0
 10
0.247858599089936
 20
0.253193795539243
 30
0.0
 40
0.110432661038336
 50
23.5314609313704
 51
52.719880875873
  0
LINE
  8
0
  6
CONTINUOUS
 62
0
 10
0.349107788734419
 20
0.297284318561131
 30
0.0
 11
0.512316525196415
 21
0.31938550162366
 31
0.0
  0
ARC
  8
0
  6
CONTINUOUS
 62
0
 10
0.30655638899615
 20
0.237694703590453
 30
0.0
 40
0.221383423346135
 50
21.6540455749602
 51
32.8335603537655
  0
ARC
  8
0
  6
CONTINUOUS
 62
0
 10
0.280407674981564
 20
0.22020438895815
 30
0.0
 40
0.25283864653385
 50
32.9510299115197
 51
62.8064641498983
  0
ARC
  8
0
  6
CONTINUOUS
 62
0
 10
0.937124501351936
 20
0.23752033435976
 30
0.0
 40
0.165335740627811
 50
172.786297844355
 51
187.213702155646
  0
ARC
  8
0
  6
CONTINUOUS
 62
0
 10
0.923576580542727
 20
0.23967128115119
 30
0.0
 40
0.151625577646871
 50
157.661788173532
 51
172.949806210186
  0
ARC
  8
0
  6
CONTINUOUS
 62
0
 10
0.89333881736397
 20
0.252509494273816
 30
0.0
 40
0.118778119027436
 50
139.84262580929
 51
157.846165851855
  0
ARC
  8
0
  6
CONTINUOUS
 62
0
 10
0.867602172422932
 20
0.274486495751883
 30
0.0
 40
0.0849357197249082
 50
117.435473859153
 51
139.977007805956
  0
ARC
  8
0
  6
CONTINUOUS
 62
0
 10
0.858242784984915
 20
0.292004832603969
 30
0.0
 40
0.065075758202173
 50
102.638901829003
 51
117.228412363413
  0
LINE
  8
0
  6
CONTINUOUS
 62
0
 10
0.844003831365218
 20
0.355503702715207
 30
0.0
 11
0.844003831365204
 21
0.476769371139748
 31
0.0
  0
ARC
  8
0
  6
CONTINUOUS
 62
0
 10
0.857359111830741
 20
0.195468463709122
 30
0.0
 40
0.281617762290674
 50
92.718181942509
 51
117.570739290479
  0
ARC
  8
0
  6
CONTINUOUS
 62
0
 10
0.842829331563416
 20
0.221819416666529
 30
0.0
 40
0.251535137381209
 50
117.41506785237
 51
147.292923451062
  0
ARC
  8
0
  6
CONTINUOUS
 62
0
 10
0.818806375889609
 20
0.237757237203823
 30
0.0
 40
0.222709669892607
 50
147.40357862996
 51
179.838672736998
  0
ARC
  8
0
  6
CONTINUOUS
 62
0
 10
0.818806375889515
 20
0.239011399179418
 30
0.0
 40
0.222709669892512
 50
180.16132726301
 51
212.596421370046
  0
ARC
  8
0
  6
CONTINUOUS
 62
0
 10
0.842829331563341
 20
0.254949219716775
 30
0.0
 40
0.251535137381163
 50
212.707076548954
 51
242.584932147637
  0
ARC
  8
0
  6
CONTINUOUS
 62
0
 10
0.857359111830751
 20
0.281300172674379
 30
0.0
 40
0.281617762290841
 50
242.42926070953
 51
267.281818057499
  0
LINE
  8
0
  6
CONTINUOUS
 62
0
 10
0.844003831365246
 20
-7.34756413933724E-7
 30
0.0
 11
0.844003831365204
 21
0.119536966004377
 31
0.0
  0
ARC
  8
0
  6
CONTINUOUS
 62
0
 10
0.858242784984924
 20
0.183035836115376
 30
0.0
 40
0.0650757582019449
 50
242.771587636518
 51
257.361098170932
  0
ARC
  8
0
  6
CONTINUOUS
 62
0
 10
0.867602172422598
 20
0.200554172967468
 30
0.0
 40
0.0849357197245283
 50
220.022992194165
 51
242.564526141001
  0
ARC
  8
0
  6
CONTINUOUS
 62
0
 10
0.893338817363974
 20
0.222531174445799
 30
0.0
 40
0.118778119027486
 50
202.153834148218
 51
220.157374190789
  0
ARC
  8
0
  6
CONTINUOUS
 62
0
 10
0.923576580542807
 20
0.235369387567898
 30
0.0
 40
0.151625577646792
 50
187.050193789677
 51
202.33821182633
  0
ARC
  8
0
  6
CONTINUOUS
 62
0
 10
0.873032254070347
 20
0.221819416666442
 30
0.0
 40
0.251535137381296
 50
32.7070765489491
 51
62.5849321476355
  0
ARC
  8
0
  6
CONTINUOUS
 62
0
 10
0.858502473803024
 20
0.195468463709048
 30
0.0
 40
0.281617762290748
 50
62.4292607095248
 51
87.2818180574937
  0
LINE
  8
0
  6
CONTINUOUS
 62
0
 10
0.871857754268551
 20
0.476769371139748
 30
0.0
 11
0.871857754268537
 21
0.355503436890889
 31
0.0
  0
ARC
  8
0
  6
CONTINUOUS
 62
0
 10
0.857617615252262
 20
0.292004832603925
 30
0.0
 40
0.0650757582022317
 50
62.7715876364525
 51
77.3600285714561
  0
ARC
  8
0
  6
CONTINUOUS
 62
0
 10
0.848258227814647
 20
0.27448649575178
 30
0.0
 40
0.0849357197248351
 50
40.0229921941768
 51
62.5645261410032
  0
ARC
  8
0
  6
CONTINUOUS
 62
0
 10
0.82252158287368
 20
0.252509494273735
 30
0.0
 40
0.118778119027296
 50
22.1538341482483
 51
40.1573741908192
  0
ARC
  8
0
  6
CONTINUOUS
 62
0
 10
0.792283819694416
 20
0.239671281151482
 30
0.0
 40
0.151625577647058
 50
7.05019378969442
 51
22.3382118263458
  0
ARC
  8
0
  6
CONTINUOUS
 62
0
 10
0.778735898885416
 20
0.23752033435976
 30
0.0
 40
0.165335740627827
 50
352.786297844355
 51
7.21370215564514
  0
ARC
  8
0
  6
CONTINUOUS
 62
0
 10
0.792283819694404
 20
0.235369387567776
 30
0.0
 40
0.151625577646997
 50
337.661788173752
 51
352.949806210403
  0
ARC
  8
0
  6
CONTINUOUS
 62
0
 10
0.82252158287347
 20
0.222531174445986
 30
0.0
 40
0.118778119027593
 50
319.842625809137
 51
337.846165851706
  0
ARC
  8
0
  6
CONTINUOUS
 62
0
 10
0.848258227814739
 20
0.200554172967634
 30
0.0
 40
0.084935719724704
 50
297.435473858984
 51
319.977007805788
  0
ARC
  8
0
  6
CONTINUOUS
 62
0
 10
0.857617615252003
 20
0.183035836115729
 30
0.0
 40
0.0650757582024751
 50
282.639971428704
 51
297.228412363708
  0
LINE
  8
0
  6
CONTINUOUS
 62
0
 10
0.871857754268508
 20
0.119537231828567
 30
0.0
 11
0.871857754268537
 21
-7.3475647788257E-7
 31
0.0
  0
ARC
  8
0
  6
CONTINUOUS
 62
0
 10
0.858502473802875
 20
0.281300172674351
 30
0.0
 40
0.281617762290883
 50
272.718181942532
 51
297.570739290498
  0
ARC
  8
0
  6
CONTINUOUS
 62
0
 10
0.873032254070474
 20
0.254949219716938
 30
0.0
 40
0.251535137381285
 50
297.415067852337
 51
327.29292345102
  0
ARC
  8
0
  6
CONTINUOUS
 62
0
 10
0.897055209744155
 20
0.239011399179212
 30
0.0
 40
0.222709669892555
 50
327.403578630024
 51
359.838672737059
  0
ARC
  8
0
  6
CONTINUOUS
 62
0
 10
0.897055209744253
 20
0.237757237204025
 30
0.0
 40
0.222709669892456
 50
0.16132726296639
 51
32.5964213700033
  0
LINE
  8
0
  6
CONTINUOUS
 62
0
 10
1.36131416176939
 20
0.353804428779771
 30
0.0
 11
1.36131416176939
 21
0.466777494508826
 31
0.0
  0
LINE
  8
0
  6
CONTINUOUS
 62
0
 10
1.36131416176939
 20
0.466777494508826
 30
0.0
 11
1.1985041548027
 21
0.466777494508826
 31
0.0
  0
LINE
  8
0
  6
CONTINUOUS
 62
0
 10
1.1985041548027
 20
0.466777494508826
 30
0.0
 11
1.1985041548027
 21
0.00997744864216621
 31
0.0
  0
LINE
  8
0
  6
CONTINUOUS
 62
0
 10
1.1985041548027
 20
0.00997744864216621
 30
0.0
 11
1.36131416176939
 21
0.00997744864216621
 31
0.0
  0
LINE
  8
0
  6
CONTINUOUS
 62
0
 10
1.36131416176939
 20
0.00997744864216621
 30
0.0
 11
1.36131416176939
 21
0.353804428779771
 31
0.0
  0
ARC
  8
0
  6
CONTINUOUS
 62
0
 10
1.51429595426923
 20
0.298004519840962
 30
0.0
 40
0.179755244316114
 50
37.0960665144304
 51
137.674872935605
  0
LINE
  8
0
  6
CONTINUOUS
 62
0
 10
1.38139645356684
 20
0.419040343348722
 30
0.0
 11
1.38139645356684
 21
0.299545428488811
 31
0.0
  0
ARC
  8
0
  6
CONTINUOUS
 62
0
 10
1.4377894163369
 20
0.281824873104702
 30
0.0
 40
0.0591116260401211
 50
17.4444631820404
 51
162.555536818023
  0
ARC
  8
0
  6
CONTINUOUS
 62
0
 10
1.3801004806327
 20
0.271368792862947
 30
0.0
 40
0.117510009593585
 50
359.780223874755
 51
13.8735991070047
  0
LINE
  8
0
  6
CONTINUOUS
 62
0
 10
1.49760962573605
 20
0.270918047075492
 30
0.0
 11
1.49760962573606
 21
0.00997744864216621
 31
0.0
  0
LINE
  8
0
  6
CONTINUOUS
 62
0
 10
1.49760962573606
 20
0.00997744864216621
 30
0.0
 11
1.68101527266939
 21
0.00997744864216621
 31
0.0
  0
LINE
  8
0
  6
CONTINUOUS
 62
0
 10
1.68101527266939
 20
0.00997744864216621
 30
0.0
 11
1.68103211622998
 21
0.30548100988175
 31
0.0
  0
ARC
  8
0
  6
CONTINUOUS
 62
0
 10
1.42874488293066
 20
0.30027488646023
 30
0.0
 40
0.252340943580114
 50
1.18217068007964
 51
24.8762251018485
  0
LINE
  8
0
  6
CONTINUOUS
 62
0
 10
1.96038689777092
 20
0.390326423315241
 30
0.0
 11
1.93534407891328
 21
0.466777494508826
 31
0.0
  0
LINE
  8
0
  6
CONTINUOUS
 62
0
 10
1.93534407891328
 20
0.466777494508826
 30
0.0
 11
1.75977227422998
 21
0.466777494508826
 31
0.0
  0
LINE
  8
0
  6
CONTINUOUS
 62
0
 10
1.75977227422998
 20
0.466777494508826
 30
0.0
 11
1.94947177732992
 21
0.00997744864216621
 31
0.0
  0
LINE
  8
0
  6
CONTINUOUS
 62
0
 10
1.94947177732992
 20
0.00997744864216621
 30
0.0
 11
2.0849765251854
 21
0.00997744864216621
 31
0.0
  0
LINE
  8
0
  6
CONTINUOUS
 62
0
 10
2.0849765251854
 20
0.00997744864216621
 30
0.0
 11
1.96038689777092
 21
0.390326423315241
 31
0.0
  0
LINE
  8
0
  6
CONTINUOUS
 62
0
 10
2.09787569137523
 20
0.391755631169272
 30
0.0
 11
2.03855616785565
 21
0.203871361583409
 31
0.0
  0
LINE
  8
0
  6
CONTINUOUS
 62
0
 10
2.03855616785565
 20
0.203871361583409
 30
0.0
 11
2.09499989337904
 21
0.031558974259501
 31
0.0
  0
LINE
  8
0
  6
CONTINUOUS
 62
0
 10
2.09499989337904
 20
0.031558974259501
 30
0.0
 11
2.29713367902992
 21
0.466777494508826
 31
0.0
  0
LINE
  8
0
  6
CONTINUOUS
 62
0
 10
2.29713367902992
 20
0.466777494508826
 30
0.0
 11
2.1215618743466
 21
0.466777494508826
 31
0.0
  0
LINE
  8
0
  6
CONTINUOUS
 62
0
 10
2.1215618743466
 20
0.466777494508826
 30
0.0
 11
2.09787569137523
 21
0.391755631169272
 31
0.0
  0
LINE
  8
0
  6
CONTINUOUS
 62
0
 10
2.55414782721805
 20
0.195097167042223
 30
0.0
 11
2.6263477625638
 21
0.195097167042223
 31
0.0
  0
LINE
  8
0
  6
CONTINUOUS
 62
0
 10
2.6263477625638
 20
0.195097167042223
 30
0.0
 11
2.6263477625638
 21
0.279086668908869
 31
0.0
  0
LINE
  8
0
  6
CONTINUOUS
 62
0
 10
2.6263477625638
 20
0.279086668908869
 30
0.0
 11
2.55457634508469
 21
0.279086668908869
 31
0.0
  0
ARC
  8
0
  6
CONTINUOUS
 62
0
 10
2.64049417735138
 20
0.277842723648442
 30
0.0
 40
0.0859268369091869
 50
99.4759301312486
 51
179.170511731871
  0
LINE
  8
0
  6
CONTINUOUS
 62
0
 10
2.62634776256393
 20
0.362597076043346
 30
0.0
 11
2.6263477625638
 21
0.476761737966407
 31
0.0
  0
ARC
  8
0
  6
CONTINUOUS
 62
0
 10
2.63964253500962
 20
0.19043416003724
 30
0.0
 40
0.286636063427423
 50
92.6584503209279
 51
117.323088987731
  0
ARC
  8
0
  6
CONTINUOUS
 62
0
 10
2.62356880345782
 20
0.219872286080896
 30
0.0
 40
0.253105480739751
 50
117.149213279877
 51
146.9999231038
  0
ARC
  8
0
  6
CONTINUOUS
 62
0
 10
2.59699314068327
 20
0.237677318430765
 30
0.0
 40
0.221120413383081
 50
147.118694157918
 51
179.818476862388
  0
ARC
  8
0
  6
CONTINUOUS
 62
0
 10
2.59699314068318
 20
0.239078413046275
 30
0.0
 40
0.22112041338299
 50
180.181523137643
 51
212.881305842115
  0
ARC
  8
0
  6
CONTINUOUS
 62
0
 10
2.62356880345795
 20
0.25688344539585
 30
0.0
 40
0.253105480739686
 50
213.000076896146
 51
242.850786720067
  0
ARC
  8
0
  6
CONTINUOUS
 62
0
 10
2.64027496347953
 20
0.290734012226411
 30
0.0
 40
0.290850189889565
 50
242.965208013777
 51
297.034791986221
  0
ARC
  8
0
  6
CONTINUOUS
 62
0
 10
2.65698112350124
 20
0.256883445395912
 30
0.0
 40
0.253105480739681
 50
297.149213279901
 51
329.910590121371
  0
LINE
  8
0
  6
CONTINUOUS
 62
0
 10
2.8759791477097
 20
0.12998880495254
 30
0.0
 11
2.7221268309514
 21
0.144532058775518
 31
0.0
  0
ARC
  8
0
  6
CONTINUOUS
 62
0
 10
2.64483047299028
 20
0.19204946384933
 30
0.0
 40
0.0907338456090285
 50
178.075102166011
 51
328.419164138494
  0
LINE
  8
0
  6
CONTINUOUS
 62
0
 10
2.72641200961799
 20
0.279086668908869
 30
0.0
 11
2.65420216439526
 21
0.279086668908869
 31
0.0
  0
LINE
  8
0
  6
CONTINUOUS
 62
0
 10
2.65420216439526
 20
0.279086668908869
 30
0.0
 11
2.65420216439526
 21
0.195097167042223
 31
0.0
  0
LINE
  8
0
  6
CONTINUOUS
 62
0
 10
2.65420216439526
 20
0.195097167042223
 30
0.0
 11
2.9002590871742
 21
0.195097167042223
 31
0.0
  0
ARC
  8
0
  6
CONTINUOUS
 62
0
 10
2.68355678627597
 20
0.239078413045886
 30
0.0
 40
0.221120413382888
 50
348.527253953783
 51
359.818476862457
  0
ARC
  8
0
  6
CONTINUOUS
 62
0
 10
2.68355678627579
 20
0.237677318430792
 30
0.0
 40
0.221120413383069
 50
0.181523137604977
 51
32.8813058420757
  0
ARC
  8
0
  6
CONTINUOUS
 62
0
 10
2.65698112350138
 20
0.219872286080965
 30
0.0
 40
0.253105480739599
 50
33.0000768962034
 51
62.8507867201251
  0
ARC
  8
0
  6
CONTINUOUS
 62
0
 10
2.64090739194932
 20
0.190434160037066
 30
0.0
 40
0.286636063427602
 50
62.6769110122484
 51
87.3415496790499
  0
LINE
  8
0
  6
CONTINUOUS
 62
0
 10
2.65420216439526
 20
0.476761737966407
 30
0.0
 11
2.65420216439526
 21
0.362669089787883
 31
0.0
  0
ARC
  8
0
  6
CONTINUOUS
 62
0
 10
2.64049417735137
 20
0.277842723648512
 30
0.0
 40
0.0859268369091181
 50
0.829488268082757
 51
80.8203300046394
  0
LINE
  8
0
  6
CONTINUOUS
 62
0
 10
3.14708329062932
 20
0.398329545789164
 30
0.0
 11
3.14708329062932
 21
0.466777494508826
 31
0.0
  0
LINE
  8
0
  6
CONTINUOUS
 62
0
 10
3.14708329062932
 20
0.466777494508826
 30
0.0
 11
2.98341624792927
 21
0.466777494508826
 31
0.0
  0
LINE
  8
0
  6
CONTINUOUS
 62
0
 10
2.98341624792927
 20
0.466777494508826
 30
0.0
 11
2.98341624792927
 21
0.00997744864216621
 31
0.0
  0
LINE
  8
0
  6
CONTINUOUS
 62
0
 10
2.98341624792927
 20
0.00997744864216621
 30
0.0
 11
3.14708329062932
 21
0.00997744864216621
 31
0.0
  0
LINE
  8
0
  6
CONTINUOUS
 62
0
 10
3.14708329062932
 20
0.00997744864216621
 30
0.0
 11
3.14708329062932
 21
0.398329545789164
 31
0.0
  0
ARC
  8
0
  6
CONTINUOUS
 62
0
 10
3.28895218596637
 20
0.376501055000025
 30
0.0
 40
0.132830899749216
 50
116.437384775262
 51
161.482050153643
  0
LINE
  8
0
  6
CONTINUOUS
 62
0
 10
3.16299871202097
 20
0.418688379272509
 30
0.0
 11
3.16299871202104
 21
0.287630912241545
 31
0.0
  0
ARC
  8
0
  6
CONTINUOUS
 62
0
 10
3.26769207302176
 20
0.262703240480621
 30
0.0
 40
0.107620112697612
 50
108.157162369782
 51
166.607149524474
  0
ARC
  8
0
  6
CONTINUOUS
 62
0
 10
3.257013487784
 20
0.27225671835317
 30
0.0
 40
0.0954842005248173
 50
60.3042089145468
 51
103.85086440504
  0
LINE
  8
0
  6
CONTINUOUS
 62
0
 10
3.30431586973767
 20
0.355200779089144
 30
0.0
 11
3.35842964158767
 21
0.479537916339186
 31
0.0
  0
ARC
  8
0
  6
CONTINUOUS
 62
0
 10
3.27741103839138
 20
0.352340976295533
 30
0.0
 40
0.150808075448052
 50
57.5047373553388
 51
108.398133672191
  0
ARC
  8
0
  6
CONTINUOUS
 62
0
 10
3.67627290223492
 20
0.511268221277458
 30
0.0
 40
0.512426783695954
 50
259.590563112798
 51
268.801976438684
  0
LINE
  8
0
  6
CONTINUOUS
 62
0
 10
3.66555911784861
 20
-0.00104654863758391
 30
0.0
 11
3.66555911784868
 21
0.0988897794030983
 31
0.0
  0
ARC
  8
0
  6
CONTINUOUS
 62
0
 10
3.6940244778066
 20
0.195320007821595
 30
0.0
 40
0.100543849490546
 50
205.300215153856
 51
253.553860581023
  0
LINE
  8
0
  6
CONTINUOUS
 62
0
 10
3.60312469935888
 20
0.152351461784606
 30
0.0
 11
3.43716979958767
 21
0.136818737175571
 31
0.0
  0
ARC
  8
0
  6
CONTINUOUS
 62
0
 10
3.59994081664605
 20
0.173287778378265
 30
0.0
 40
0.166806459588541
 50
192.628630065789
 51
264.408175229658
  0
ARC
  8
0
  6
CONTINUOUS
 62
0
 10
3.62029492321015
 20
0.376431592144584
 30
0.0
 40
0.177849916361151
 50
210.661960709037
 51
259.914316965732
  0
ARC
  8
0
  6
CONTINUOUS
 62
0
 10
3.14937328092713
 20
-2.24358940926457
 30
0.0
 40
2.48415664024514
 50
76.3270870865959
 51
79.8030417295229
  0
ARC
  8
0
  6
CONTINUOUS
 62
0
 10
3.72424680916723
 20
0.137140585311724
 30
0.0
 40
0.0352540065788597
 50
288.636733714866
 51
69.5307918982684
  0
ARC
  8
0
  6
CONTINUOUS
 62
0
 10
3.6940244778066
 20
0.195320007821516
 30
0.0
 40
0.100543849490562
 50
269.657276891399
 51
294.370740069342
  0
LINE
  8
0
  6
CONTINUOUS
 62
0
 10
3.69342306361078
 20
0.0947779570599279
 30
0.0
 11
3.69342306361078
 21
-0.000871486823578849
 31
0.0
  0
ARC
  8
0
  6
CONTINUOUS
 62
0
 10
3.67627290223508
 20
0.511268221277231
 30
0.0
 40
0.512426783695774
 50
271.917962597469
 51
284.911631432464
  0
ARC
  8
0
  6
CONTINUOUS
 62
0
 10
3.74951089855958
 20
0.197233877562546
 30
0.0
 40
0.190386481066123
 50
287.934068336847
 51
313.042547692548
  0
ARC
  8
0
  6
CONTINUOUS
 62
0
 10
3.78820794972035
 20
0.155679712734338
 30
0.0
 40
0.13360443215803
 50
313.077201439481
 51
75.3034843579695
  0
ARC
  8
0
  6
CONTINUOUS
 62
0
 10
3.56805875458293
 20
-0.666101266771696
 30
0.0
 40
0.984361121662634
 50
75.0437970352156
 51
84.3009021459156
  0
ARC
  8
0
  6
CONTINUOUS
 62
0
 10
3.67296229642302
 20
0.394107999644444
 30
0.0
 40
0.0810299991197927
 50
231.572568644481
 51
264.935949000216
  0
ARC
  8
0
  6
CONTINUOUS
 62
0
 10
3.63558885570199
 20
0.347000801267045
 30
0.0
 40
0.0208979593215671
 50
182.589926348226
 51
231.572568644436
  0
ARC
  8
0
  6
CONTINUOUS
 62
0
 10
3.65334685555857
 20
0.346250486799138
 30
0.0
 40
0.0386350996575792
 50
71.5732249903252
 51
180.287716091646
  0
LINE
  8
0
  6
CONTINUOUS
 62
0
 10
3.66555911784861
 20
0.382904703136557
 30
0.0
 11
3.66555911784868
 21
0.475362647883787
 31
0.0
  0
ARC
  8
0
  6
CONTINUOUS
 62
0
 10
3.69726682881408
 20
-0.173955799709642
 30
0.0
 40
0.65009216678853
 50
92.7956637319685
 51
102.980434162298
  0
ARC
  8
0
  6
CONTINUOUS
 62
0
 10
3.58834434942819
 20
0.333879147361283
 30
0.0
 40
0.131008247093923
 50
106.450639036003
 51
197.503105681458
  0
ARC
  8
0
  6
CONTINUOUS
 62
0
 10
3.5032624938165
 20
0.307047870961269
 30
0.0
 40
0.0417959186432936
 50
197.503105681324
 51
210.661960708882
  0
ARC
  8
0
  6
CONTINUOUS
 62
0
 10
3.6972668288147
 20
-0.173955799709699
 30
0.0
 40
0.650092166788597
 50
85.8102178290564
 51
90.3387716666842
  0
LINE
  8
0
  6
CONTINUOUS
 62
0
 10
3.69342306361071
 20
0.476125003567055
 30
0.0
 11
3.69342306361078
 21
0.376487683559275
 31
0.0
  0
ARC
  8
0
  6
CONTINUOUS
 62
0
 10
3.65704997928711
 20
0.282252527398025
 30
0.0
 40
0.10101121680265
 50
34.2342405762751
 51
68.8943038655324
  0
LINE
  8
0
  6
CONTINUOUS
 62
0
 10
3.74056044918772
 20
0.339079170242143
 30
0.0
 11
3.90682538144481
 21
0.355362849204985
 31
0.0
  0
ARC
  8
0
  6
CONTINUOUS
 62
0
 10
3.74265742407824
 20
0.301693955907656
 30
0.0
 40
0.172717886548186
 50
18.1033214588529
 51
89.3015708634146
  0
ARC
  8
0
  6
CONTINUOUS
 62
0
 10
4.21574694950004
 20
-0.117458269822051
 30
0.0
 40
0.394432411782721
 50
97.5843663717129
 51
116.014958337943
  0
ARC
  8
0
  6
CONTINUOUS
 62
0
 10
4.11006187424998
 20
0.13205446260668
 30
0.0
 40
0.124687713990612
 50
122.674846955986
 51
183.174890228046
  0
ARC
  8
0
  6
CONTINUOUS
 62
0
 10
4.11006187424997
 20
0.132054462606661
 30
0.0
 40
0.124687713990602
 50
183.174890228038
 51
222.597021218352
  0
ARC
  8
0
  6
CONTINUOUS
 62
0
 10
4.13762011759686
 20
0.169930232050287
 30
0.0
 40
0.170859416524692
 50
225.693409011421
 51
274.891212872332
  0
ARC
  8
0
  6
CONTINUOUS
 62
0
 10
4.16480575663089
 20
0.233027076500968
 30
0.0
 40
0.233674950156589
 50
266.904764320631
 51
303.506891410978
  0
LINE
  8
0
  6
CONTINUOUS
 62
0
 10
4.29380304035152
 20
0.038184362694726
 30
0.0
 11
4.29380304035152
 21
0.129545015944634
 31
0.0
  0
ARC
  8
0
  6
CONTINUOUS
 62
0
 10
4.21903964415815
 20
0.197630502770214
 30
0.0
 40
0.101119725704949
 50
268.242760740625
 51
317.676518421784
  0
ARC
  8
0
  6
CONTINUOUS
 62
0
 10
4.20967418249945
 20
0.142757786928586
 30
0.0
 40
0.0466222638674823
 50
115.811533065269
 51
277.722206015673
  0
ARC
  8
0
  6
CONTINUOUS
 62
0
 10
4.47671827862067
 20
-0.525055451857279
 30
0.0
 40
0.765741456518857
 50
103.820054987262
 51
112.039726652437
  0
LINE
  8
0
  6
CONTINUOUS
 62
0
 10
4.29380304035148
 20
0.218518346659417
 30
0.0
 11
4.29380304048508
 21
0.30600762431628
 31
0.0
  0
ARC
  8
0
  6
CONTINUOUS
 62
0
 10
3.97978848101685
 20
1.28696488787362
 30
0.0
 40
1.02999140602431
 50
280.284972254216
 51
287.750406020947
  0
ARC
  8
0
  6
CONTINUOUS
 62
0
 10
4.24543099679347
 20
-0.134441315787518
 30
0.0
 40
0.612457060169022
 50
76.1619689252715
 51
100.4837660542
  0
ARC
  8
0
  6
CONTINUOUS
 62
0
 10
4.15299123745151
 20
0.314276796056731
 30
0.0
 40
0.154686339076332
 50
97.0558023887351
 51
171.416022609929
  0
LINE
  8
0
  6
CONTINUOUS
 62
0
 10
4.00003767006692
 20
0.337365098748059
 30
0.0
 11
4.16715963807106
 21
0.319367348375478
 31
0.0
  0
ARC
  8
0
  6
CONTINUOUS
 62
0
 10
4.25240430029599
 20
0.293369288249661
 30
0.0
 40
0.0891209939809219
 50
136.725498720867
 51
163.039254547763
  0
ARC
  8
0
  6
CONTINUOUS
 62
0
 10
4.25109909575869
 20
0.275918601073805
 30
0.0
 40
0.101052425376417
 50
62.0769156206269
 51
128.990858755514
  0
ARC
  8
0
  6
CONTINUOUS
 62
0
 10
4.26444028271096
 20
0.323048943747572
 30
0.0
 40
0.0541469368028006
 50
359.924390933132
 51
51.1299643873969
  0
LINE
  8
0
  6
CONTINUOUS
 62
0
 10
4.3185871723676
 20
0.322977489999809
 30
0.0
 11
4.31843953224221
 21
0.211097374077148
 31
0.0
  0
LINE
  8
0
  6
CONTINUOUS
 62
0
 10
4.31843953224221
 20
0.211097374077148
 30
0.0
 11
4.31843953224221
 21
0.0517733672853886
 31
0.0
  0
ARC
  8
0
  6
CONTINUOUS
 62
0
 10
4.36023545088542
 20
0.0517733672853713
 30
0.0
 40
0.0417959186432055
 50
179.999999999976
 51
269.999999999976
  0
LINE
  8
0
  6
CONTINUOUS
 62
0
 10
4.3602354508854
 20
0.00997744864216621
 30
0.0
 11
4.51065807643218
 21
0.00997744864216621
 31
0.0
  0
ARC
  8
0
  6
CONTINUOUS
 62
0
 10
4.73999520867177
 20
0.111045784300097
 30
0.0
 40
0.250619888868662
 50
180.882890511502
 51
203.782974908527
  0
LINE
  8
0
  6
CONTINUOUS
 62
0
 10
4.48940507380442
 20
0.107184048458847
 30
0.0
 11
4.4894050738044
 21
0.308895443008852
 31
0.0
  0
ARC
  8
0
  6
CONTINUOUS
 62
0
 10
4.33798517759349
 20
0.318429165499947
 30
0.0
 40
0.151719731192281
 50
356.397290070471
 51
69.177639122674
  0
LINE
  8
0
  6
CONTINUOUS
 62
0
 10
4.82936823976553
 20
0.466777494508826
 30
0.0
 11
4.82936823976553
 21
0.639898712642166
 31
0.0
  0
LINE
  8
0
  6
CONTINUOUS
 62
0
 10
4.82936823976553
 20
0.639898712642166
 30
0.0
 11
4.65367591443223
 21
0.550338478508833
 31
0.0
  0
LINE
  8
0
  6
CONTINUOUS
 62
0
 10
4.65367591443223
 20
0.550338478508833
 30
0.0
 11
4.65367591443223
 21
0.466777494508826
 31
0.0
  0
LINE
  8
0
  6
CONTINUOUS
 62
0
 10
4.65367591443223
 20
0.466777494508826
 30
0.0
 11
4.58939823443219
 21
0.466777494508826
 31
0.0
  0
LINE
  8
0
  6
CONTINUOUS
 62
0
 10
4.58939823443219
 20
0.466777494508826
 30
0.0
 11
4.58939823443219
 21
0.339079170242143
 31
0.0
  0
LINE
  8
0
  6
CONTINUOUS
 62
0
 10
4.58939823443219
 20
0.339079170242143
 30
0.0
 11
4.65367591443223
 21
0.339079170242143
 31
0.0
  0
LINE
  8
0
  6
CONTINUOUS
 62
0
 10
4.65367591443223
 20
0.339079170242143
 30
0.0
 11
4.65367591443223
 21
0.178197493675505
 31
0.0
  0
ARC
  8
0
  6
CONTINUOUS
 62
0
 10
4.96522327790772
 20
0.163595820605362
 30
0.0
 40
0.311889353048446
 50
177.31661195919
 51
197.957064704208
  0
ARC
  8
0
  6
CONTINUOUS
 62
0
 10
4.7730541393538
 20
0.117386537197344
 30
0.0
 40
0.115847886198192
 50
205.540402344714
 51
268.990908406157
  0
ARC
  8
0
  6
CONTINUOUS
 62
0
 10
4.80266476017894
 20
0.650369347886089
 30
0.0
 40
0.64958427772502
 50
267.207172229705
 51
281.503734742756
  0
LINE
  8
0
  6
CONTINUOUS
 62
0
 10
4.93221252776556
 20
0.013834109442171
 30
0.0
 11
4.91930342703211
 21
0.134314585892271
 31
0.0
  0
ARC
  8
0
  6
CONTINUOUS
 62
0
 10
4.86093444107977
 20
0.290461737073029
 30
0.0
 40
0.166699944040093
 50
269.166812127463
 51
290.496123322275
  0
ARC
  8
0
  6
CONTINUOUS
 62
0
 10
4.85881428205523
 20
0.144675168166535
 30
0.0
 40
0.020897959321719
 50
246.942397569832
 51
269.166812127289
  0
ARC
  8
0
  6
CONTINUOUS
 62
0
 10
4.86397307877743
 20
0.156794640712712
 30
0.0
 40
0.0340697017432248
 50
175.90905193525
 51
246.942397569997
  0
LINE
  8
0
  6
CONTINUOUS
 62
0
 10
4.8299901843828
 20
0.159225168522823
 30
0.0
 11
4.8299901843828
 21
0.339079170242143
 31
0.0
  0
LINE
  8
0
  6
CONTINUOUS
 62
0
 10
4.8299901843828
 20
0.339079170242143
 30
0.0
 11
4.92535624189889
 21
0.339079170242143
 31
0.0
  0
LINE
  8
0
  6
CONTINUOUS
 62
0
 10
4.92535624189889
 20
0.339079170242143
 30
0.0
 11
4.92535624189889
 21
0.466777494508826
 31
0.0
  0
LINE
  8
0
  6
CONTINUOUS
 62
0
 10
4.92535624189889
 20
0.466777494508826
 30
0.0
 11
4.82936823976553
 21
0.466777494508826
 31
0.0
  0
LINE
  8
0
  6
CONTINUOUS
 62
0
 10
5.17893168949891
 20
0.389514228609344
 30
0.0
 11
5.17893168949891
 21
0.466777494508889
 31
0.0
  0
LINE
  8
0
  6
CONTINUOUS
 62
0
 10
5.17893168949891
 20
0.466777494508889
 30
0.0
 11
5.00409639989889
 21
0.466777494508889
 31
0.0
  0
LINE
  8
0
  6
CONTINUOUS
 62
0
 10
5.00409639989889
 20
0.466777494508889
 30
0.0
 11
5.00409639989889
 21
0.00997744864216621
 31
0.0
  0
LINE
  8
0
  6
CONTINUOUS
 62
0
 10
5.00409639989889
 20
0.00997744864216621
 30
0.0
 11
5.17893168949891
 21
0.00997744864216621
 31
0.0
  0
LINE
  8
0
  6
CONTINUOUS
 62
0
 10
5.17893168949891
 20
0.00997744864216621
 30
0.0
 11
5.17893168949891
 21
0.389514228609344
 31
0.0
  0
LINE
  8
0
  6
CONTINUOUS
 62
0
 10
5.17893168949891
 20
0.580763247042172
 30
0.0
 11
5.17893168949891
 21
0.639898712642166
 31
0.0
  0
LINE
  8
0
  6
CONTINUOUS
 62
0
 10
5.17893168949891
 20
0.639898712642166
 30
0.0
 11
5.00409639989889
 21
0.639898712642166
 31
0.0
  0
LINE
  8
0
  6
CONTINUOUS
 62
0
 10
5.00409639989889
 20
0.639898712642166
 30
0.0
 11
5.00409639989889
 21
0.521627781442176
 31
0.0
  0
LINE
  8
0
  6
CONTINUOUS
 62
0
 10
5.00409639989889
 20
0.521627781442176
 30
0.0
 11
5.17893168949891
 21
0.521627781442176
 31
0.0
  0
LINE
  8
0
  6
CONTINUOUS
 62
0
 10
5.17893168949891
 20
0.521627781442176
 30
0.0
 11
5.17893168949891
 21
0.580763247042172
 31
0.0
  0
ARC
  8
0
  6
CONTINUOUS
 62
0
 10
5.59869876001983
 20
0.23752033435976
 30
0.0
 40
0.165335740627811
 50
172.786297844355
 51
187.213702155646
  0
ARC
  8
0
  6
CONTINUOUS
 62
0
 10
5.58515083921063
 20
0.239671281151243
 30
0.0
 40
0.151625577646857
 50
157.661788173552
 51
172.949806210206
  0
ARC
  8
0
  6
CONTINUOUS
 62
0
 10
5.55491307603188
 20
0.252509494273771
 30
0.0
 40
0.11877811902746
 50
139.842625809271
 51
157.846165851836
  0
ARC
  8
0
  6
CONTINUOUS
 62
0
 10
5.52917643109084
 20
0.274486495751919
 30
0.0
 40
0.0849357197248798
 50
117.435473859169
 51
139.977007805972
  0
ARC
  8
0
  6
CONTINUOUS
 62
0
 10
5.51981704365281
 20
0.292004832603969
 30
0.0
 40
0.065075758202173
 50
102.638901829003
 51
117.228412363413
  0
LINE
  8
0
  6
CONTINUOUS
 62
0
 10
5.50557809003312
 20
0.355503702715207
 30
0.0
 11
5.50557809003312
 21
0.476769371139748
 31
0.0
  0
ARC
  8
0
  6
CONTINUOUS
 62
0
 10
5.51893337049865
 20
0.19546846370909
 30
0.0
 40
0.281617762290706
 50
92.7181819425072
 51
117.570739290477
  0
ARC
  8
0
  6
CONTINUOUS
 62
0
 10
5.50440359023131
 20
0.221819416666529
 30
0.0
 40
0.251535137381209
 50
117.41506785237
 51
147.292923451062
  0
ARC
  8
0
  6
CONTINUOUS
 62
0
 10
5.48038063455751
 20
0.237757237203823
 30
0.0
 40
0.222709669892607
 50
147.40357862996
 51
179.838672736998
  0
ARC
  8
0
  6
CONTINUOUS
 62
0
 10
5.48038063455742
 20
0.239011399179443
 30
0.0
 40
0.22270966989252
 50
180.161327263017
 51
212.596421370053
  0
ARC
  8
0
  6
CONTINUOUS
 62
0
 10
5.50440359023125
 20
0.254949219716748
 30
0.0
 40
0.251535137381142
 50
212.707076548949
 51
242.584932147632
  0
ARC
  8
0
  6
CONTINUOUS
 62
0
 10
5.51893337049865
 20
0.281300172674379
 30
0.0
 40
0.281617762290841
 50
242.42926070953
 51
267.281818057499
  0
LINE
  8
0
  6
CONTINUOUS
 62
0
 10
5.50557809003314
 20
-7.34756413933724E-7
 30
0.0
 11
5.50557809003312
 21
0.119536966004377
 31
0.0
  0
ARC
  8
0
  6
CONTINUOUS
 62
0
 10
5.51981704365284
 20
0.183035836115376
 30
0.0
 40
0.0650757582019449
 50
242.771587636518
 51
257.361098170932
  0
ARC
  8
0
  6
CONTINUOUS
 62
0
 10
5.5291764310905
 20
0.200554172967504
 30
0.0
 40
0.0849357197245566
 50
220.02299219418
 51
242.564526141016
  0
ARC
  8
0
  6
CONTINUOUS
 62
0
 10
5.55491307603187
 20
0.222531174445799
 30
0.0
 40
0.118778119027486
 50
202.153834148218
 51
220.157374190789
  0
ARC
  8
0
  6
CONTINUOUS
 62
0
 10
5.5851508392107
 20
0.235369387567898
 30
0.0
 40
0.151625577646792
 50
187.050193789677
 51
202.33821182633
  0
ARC
  8
0
  6
CONTINUOUS
 62
0
 10
5.53460651273824
 20
0.221819416666441
 30
0.0
 40
0.251535137381297
 50
32.7070765489492
 51
62.5849321476355
  0
ARC
  8
0
  6
CONTINUOUS
 62
0
 10
5.52007673247093
 20
0.19546846370908
 30
0.0
 40
0.281617762290716
 50
62.429260709523
 51
87.2818180574919
  0
LINE
  8
0
  6
CONTINUOUS
 62
0
 10
5.53343201293646
 20
0.476769371139748
 30
0.0
 11
5.53343201293645
 21
0.355503436890889
 31
0.0
  0
ARC
  8
0
  6
CONTINUOUS
 62
0
 10
5.51919187392017
 20
0.292004832603925
 30
0.0
 40
0.0650757582022317
 50
62.7715876364525
 51
77.3600285714561
  0
ARC
  8
0
  6
CONTINUOUS
 62
0
 10
5.50983248648255
 20
0.274486495751815
 30
0.0
 40
0.0849357197248067
 50
40.0229921941614
 51
62.5645261409878
  0
ARC
  8
0
  6
CONTINUOUS
 62
0
 10
5.48409584154158
 20
0.252509494273735
 30
0.0
 40
0.118778119027296
 50
22.1538341482483
 51
40.1573741908192
  0
ARC
  8
0
  6
CONTINUOUS
 62
0
 10
5.45385807836231
 20
0.239671281151482
 30
0.0
 40
0.151625577647058
 50
7.05019378969442
 51
22.3382118263458
  0
ARC
  8
0
  6
CONTINUOUS
 62
0
 10
5.44031015755331
 20
0.23752033435976
 30
0.0
 40
0.165335740627827
 50
352.786297844355
 51
7.21370215564514
  0
ARC
  8
0
  6
CONTINUOUS
 62
0
 10
5.45385807836231
 20
0.235369387567829
 30
0.0
 40
0.15162557764701
 50
337.661788173732
 51
352.949806210383
  0
ARC
  8
0
  6
CONTINUOUS
 62
0
 10
5.48409584154137
 20
0.222531174445986
 30
0.0
 40
0.118778119027593
 50
319.842625809137
 51
337.846165851706
  0
ARC
  8
0
  6
CONTINUOUS
 62
0
 10
5.50983248648264
 20
0.200554172967634
 30
0.0
 40
0.084935719724704
 50
297.435473858984
 51
319.977007805788
  0
ARC
  8
0
  6
CONTINUOUS
 62
0
 10
5.51919187391991
 20
0.183035836115674
 30
0.0
 40
0.0650757582024225
 50
282.639971428721
 51
297.228412363725
  0
LINE
  8
0
  6
CONTINUOUS
 62
0
 10
5.53343201293642
 20
0.119537231828567
 30
0.0
 11
5.53343201293645
 21
-7.3475647788257E-7
 31
0.0
  0
ARC
  8
0
  6
CONTINUOUS
 62
0
 10
5.52007673247078
 20
0.281300172674319
 30
0.0
 40
0.281617762290851
 50
272.718181942534
 51
297.5707392905
  0
ARC
  8
0
  6
CONTINUOUS
 62
0
 10
5.53460651273837
 20
0.254949219716938
 30
0.0
 40
0.251535137381285
 50
297.415067852337
 51
327.29292345102
  0
ARC
  8
0
  6
CONTINUOUS
 62
0
 10
5.55862946841206
 20
0.239011399179236
 30
0.0
 40
0.222709669892562
 50
327.403578630018
 51
359.838672737053
  0
ARC
  8
0
  6
CONTINUOUS
 62
0
 10
5.55862946841216
 20
0.237757237204
 30
0.0
 40
0.222709669892463
 50
0.161327262972674
 51
32.5964213700096
  0
LINE
  8
0
  6
CONTINUOUS
 62
0
 10
6.02288842043729
 20
0.353804428779771
 30
0.0
 11
6.02288842043729
 21
0.466777494508826
 31
0.0
  0
LINE
  8
0
  6
CONTINUOUS
 62
0
 10
6.02288842043729
 20
0.466777494508826
 30
0.0
 11
5.86007841347059
 21
0.466777494508826
 31
0.0
  0
LINE
  8
0
  6
CONTINUOUS
 62
0
 10
5.86007841347059
 20
0.466777494508826
 30
0.0
 11
5.86007841347059
 21
0.00997744864216621
 31
0.0
  0
LINE
  8
0
  6
CONTINUOUS
 62
0
 10
5.86007841347059
 20
0.00997744864216621
 30
0.0
 11
6.02288842043729
 21
0.00997744864216621
 31
0.0
  0
LINE
  8
0
  6
CONTINUOUS
 62
0
 10
6.02288842043729
 20
0.00997744864216621
 30
0.0
 11
6.02288842043729
 21
0.353804428779771
 31
0.0
  0
ARC
  8
0
  6
CONTINUOUS
 62
0
 10
6.17587021293713
 20
0.298004519840962
 30
0.0
 40
0.179755244316114
 50
37.0960665144304
 51
137.674872935605
  0
LINE
  8
0
  6
CONTINUOUS
 62
0
 10
6.04297071223474
 20
0.419040343348722
 30
0.0
 11
6.04297071223474
 21
0.299545428488811
 31
0.0
  0
ARC
  8
0
  6
CONTINUOUS
 62
0
 10
6.0993636750048
 20
0.281824873104702
 30
0.0
 40
0.0591116260401211
 50
17.4444631820404
 51
162.555536818023
  0
ARC
  8
0
  6
CONTINUOUS
 62
0
 10
6.0416747393006
 20
0.271368792862947
 30
0.0
 40
0.117510009593585
 50
359.780223874755
 51
13.8735991070047
  0
LINE
  8
0
  6
CONTINUOUS
 62
0
 10
6.15918388440395
 20
0.270918047075492
 30
0.0
 11
6.15918388440396
 21
0.00997744864216621
 31
0.0
  0
LINE
  8
0
  6
CONTINUOUS
 62
0
 10
6.15918388440396
 20
0.00997744864216621
 30
0.0
 11
6.3425895313373
 21
0.00997744864216621
 31
0.0
  0
LINE
  8
0
  6
CONTINUOUS
 62
0
 10
6.3425895313373
 20
0.00997744864216621
 30
0.0
 11
6.34260637489787
 21
0.30548100988175
 31
0.0
  0
ARC
  8
0
  6
CONTINUOUS
 62
0
 10
6.09031914159857
 20
0.300274886460264
 30
0.0
 40
0.252340943580106
 50
1.18217068007198
 51
24.8762251018409
  0
LINE
  8
0
  6
CONTINUOUS
 62
0
 10
6.97026047846547
 20
0.390326423315241
 30
0.0
 11
6.94521765960784
 21
0.466777494508826
 31
0.0
  0
LINE
  8
0
  6
CONTINUOUS
 62
0
 10
6.94521765960784
 20
0.466777494508826
 30
0.0
 11
6.76964585492452
 21
0.466777494508826
 31
0.0
  0
LINE
  8
0
  6
CONTINUOUS
 62
0
 10
6.76964585492452
 20
0.466777494508826
 30
0.0
 11
6.95934535802448
 21
0.00997744864216621
 31
0.0
  0
LINE
  8
0
  6
CONTINUOUS
 62
0
 10
6.95934535802448
 20
0.00997744864216621
 30
0.0
 11
7.09485010587995
 21
0.00997744864216621
 31
0.0
  0
LINE
  8
0
  6
CONTINUOUS
 62
0
 10
7.09485010587995
 20
0.00997744864216621
 30
0.0
 11
6.97026047846547
 21
0.390326423315241
 31
0.0
  0
LINE
  8
0
  6
CONTINUOUS
 62
0
 10
7.10774927206977
 20
0.391755631169272
 30
0.0
 11
7.0484297485502
 21
0.203871361583409
 31
0.0
  0
LINE
  8
0
  6
CONTINUOUS
 62
0
 10
7.0484297485502
 20
0.203871361583409
 30
0.0
 11
7.10487347407359
 21
0.031558974259501
 31
0.0
  0
LINE
  8
0
  6
CONTINUOUS
 62
0
 10
7.10487347407359
 20
0.031558974259501
 30
0.0
 11
7.30700725972446
 21
0.466777494508826
 31
0.0
  0
LINE
  8
0
  6
CONTINUOUS
 62
0
 10
7.30700725972446
 20
0.466777494508826
 30
0.0
 11
7.13143545504116
 21
0.466777494508826
 31
0.0
  0
LINE
  8
0
  6
CONTINUOUS
 62
0
 10
7.13143545504116
 20
0.466777494508826
 30
0.0
 11
7.10774927206977
 21
0.391755631169272
 31
0.0
  0
ARC
  8
0
  6
CONTINUOUS
 62
0
 10
7.69706538827948
 20
0.367704785808871
 30
0.0
 40
0.30222704632682
 50
127.051933747944
 51
156.278658258888
  0
ARC
  8
0
  6
CONTINUOUS
 62
0
 10
7.7812046714561
 20
0.327464308389144
 30
0.0
 40
0.395457253731727
 50
155.845103511334
 51
180.229394009656
  0
ARC
  8
0
  6
CONTINUOUS
 62
0
 10
7.78120467145614
 20
0.324297747658165
 30
0.0
 40
0.39545725373177
 50
179.770605990341
 51
204.154896488664
  0
ARC
  8
0
  6
CONTINUOUS
 62
0
 10
7.69706538827947
 20
0.284057270238443
 30
0.0
 40
0.30222704632681
 50
203.721341741115
 51
232.948066252058
  0
ARC
  8
0
  6
CONTINUOUS
 62
0
 10
7.64617550973936
 20
0.21752527955746
 30
0.0
 40
0.218466065511825
 50
233.086171985511
 51
265.82101051289
  0
LINE
  8
0
  6
CONTINUOUS
 62
0
 10
7.6302553469791
 20
-0.000359942974734295
 30
0.0
 11
7.63025534697916
 21
0.121739202186478
 31
0.0
  0
ARC
  8
0
  6
CONTINUOUS
 62
0
 10
7.64535177060676
 20
0.160547635465874
 30
0.0
 40
0.0416412836010764
 50
229.008983066186
 51
248.74403780072
  0
ARC
  8
0
  6
CONTINUOUS
 62
0
 10
7.68309139534326
 20
0.205019708680552
 30
0.0
 40
0.0999666578473479
 50
207.607536337988
 51
229.401423884897
  0
ARC
  8
0
  6
CONTINUOUS
 62
0
 10
7.79403152243362
 20
0.266392272873958
 30
0.0
 40
0.226735755958149
 50
195.772289335636
 51
208.35903088634
  0
ARC
  8
0
  6
CONTINUOUS
 62
0
 10
7.94543417655106
 20
0.311362951301649
 30
0.0
 40
0.384667596821389
 50
187.251023241676
 51
196.088661758377
  0
ARC
  8
0
  6
CONTINUOUS
 62
0
 10
8.05514427270539
 20
0.326661081676053
 30
0.0
 40
0.495432968560502
 50
179.942337347323
 51
187.404666498173
  0
ARC
  8
0
  6
CONTINUOUS
 62
0
 10
8.05514427270553
 20
0.327658292102732
 30
0.0
 40
0.495432968560647
 50
172.595333501827
 51
180.057662652674
  0
ARC
  8
0
  6
CONTINUOUS
 62
0
 10
7.94543417655102
 20
0.342956422477128
 30
0.0
 40
0.384667596821352
 50
163.911338241621
 51
172.748976758321
  0
ARC
  8
0
  6
CONTINUOUS
 62
0
 10
7.79403152243362
 20
0.387927100904841
 30
0.0
 40
0.226735755958144
 50
151.640969113662
 51
164.227710664368
  0
ARC
  8
0
  6
CONTINUOUS
 62
0
 10
7.68309139534333
 20
0.449299665098094
 30
0.0
 40
0.0999666578474702
 50
130.598576115046
 51
152.392463661954
  0
ARC
  8
0
  6
CONTINUOUS
 62
0
 10
7.64535177060675
 20
0.493771738313121
 30
0.0
 40
0.0416412836008908
 50
111.255962199371
 51
130.991016933922
  0
LINE
  8
0
  6
CONTINUOUS
 62
0
 10
7.63025534697916
 20
0.53258017159232
 30
0.0
 11
7.63025534697916
 21
0.652121999022052
 31
0.0
  0
ARC
  8
0
  6
CONTINUOUS
 62
0
 10
7.64617550973938
 20
0.434236776489766
 30
0.0
 40
0.218466065511914
 50
94.1789894870993
 51
126.913828014479
  0
LINE
  8
0
  6
CONTINUOUS
 62
0
 10
7.65809110045372
 20
0.59233097937254
 30
0.0
 11
7.65809110045372
 21
0.532539959723035
 31
0.0
  0
ARC
  8
0
  6
CONTINUOUS
 62
0
 10
7.64289170873425
 20
0.493771738312953
 30
0.0
 40
0.0416412836010514
 50
49.0089830661649
 51
68.5919396302438
  0
ARC
  8
0
  6
CONTINUOUS
 62
0
 10
7.60515208399769
 20
0.449299665098274
 30
0.0
 40
0.0999666578473558
 50
27.6075363379603
 51
49.4014238848681
  0
ARC
  8
0
  6
CONTINUOUS
 62
0
 10
7.49421195690743
 20
0.387927100904773
 30
0.0
 40
0.226735755958118
 50
15.7722893356555
 51
28.3590308863599
  0
ARC
  8
0
  6
CONTINUOUS
 62
0
 10
7.34280930278999
 20
0.342956422477244
 30
0.0
 40
0.384667596821313
 50
7.25102324166496
 51
16.0886617583654
  0
ARC
  8
0
  6
CONTINUOUS
 62
0
 10
7.23309920663541
 20
0.327658292102311
 30
0.0
 40
0.495432968560747
 50
359.942337347374
 51
7.40466649822216
  0
ARC
  8
0
  6
CONTINUOUS
 62
0
 10
7.23309920663548
 20
0.326661081676501
 30
0.0
 40
0.495432968560676
 50
352.595333501777
 51
0.0576626526251031
  0
ARC
  8
0
  6
CONTINUOUS
 62
0
 10
7.34280930279002
 20
0.311362951301555
 30
0.0
 40
0.384667596821282
 50
343.911338241634
 51
352.748976758336
  0
ARC
  8
0
  6
CONTINUOUS
 62
0
 10
7.49421195690734
 20
0.266392272874028
 30
0.0
 40
0.226735755958204
 50
331.640969113648
 51
344.227710664352
  0
ARC
  8
0
  6
CONTINUOUS
 62
0
 10
7.60515208399766
 20
0.205019708680715
 30
0.0
 40
0.0999666578474821
 50
310.598576115044
 51
332.392463661947
  0
ARC
  8
0
  6
CONTINUOUS
 62
0
 10
7.64289170873422
 20
0.160547635465642
 30
0.0
 40
0.041641283600871
 50
291.408060369888
 51
310.991016933964
  0
LINE
  8
0
  6
CONTINUOUS
 62
0
 10
7.65809110045372
 20
0.121779414055762
 30
0.0
 11
7.65809110045372
 21
-0.000359942974734295
 31
0.0
  0
ARC
  8
0
  6
CONTINUOUS
 62
0
 10
7.64217093769355
 20
0.217525279557654
 30
0.0
 40
0.218466065512012
 50
274.178989487085
 51
306.913828014463
  0
ARC
  8
0
  6
CONTINUOUS
 62
0
 10
7.59128105915342
 20
0.284057270238329
 30
0.0
 40
0.30222704632676
 50
307.051933747962
 51
336.278658258905
  0
ARC
  8
0
  6
CONTINUOUS
 62
0
 10
7.50714177597683
 20
0.324297747658298
 30
0.0
 40
0.39545725373174
 50
335.845103511314
 51
0.229394009639435
  0
ARC
  8
0
  6
CONTINUOUS
 62
0
 10
7.50714177597678
 20
0.327464308388898
 30
0.0
 40
0.395457253731786
 50
359.770605990379
 51
24.1548964887035
  0
ARC
  8
0
  6
CONTINUOUS
 62
0
 10
7.59128105915339
 20
0.367704785808982
 30
0.0
 40
0.30222704632674
 50
23.7213417410986
 51
52.9480662520416
  0
ARC
  8
0
  6
CONTINUOUS
 62
0
 10
7.64217093769353
 20
0.434236776489854
 30
0.0
 40
0.218466065511828
 50
53.0861719855118
 51
85.8210105128904
  0
LINE
  8
0
  6
CONTINUOUS
 62
0
 10
7.65809110045378
 20
0.652121999022052
 30
0.0
 11
7.65809110045372
 21
0.59233097937254
 31
0.0
  0
LINE
  8
0
  6
CONTINUOUS
 62
0
 10
8.12146453010851
 20
0.0758620706421631
 30
0.0
 11
8.12146453010851
 21
0.141746692642156
 31
0.0
  0
LINE
  8
0
  6
CONTINUOUS
 62
0
 10
8.12146453010851
 20
0.141746692642156
 30
0.0
 11
7.98133918770853
 21
0.141746692642156
 31
0.0
  0
LINE
  8
0
  6
CONTINUOUS
 62
0
 10
7.98133918770853
 20
0.141746692642156
 30
0.0
 11
7.98133918770853
 21
0.00997744864216621
 31
0.0
  0
LINE
  8
0
  6
CONTINUOUS
 62
0
 10
7.98133918770853
 20
0.00997744864216621
 30
0.0
 11
8.12146453010851
 21
0.00997744864217243
 31
0.0
  0
LINE
  8
0
  6
CONTINUOUS
 62
0
 10
8.12146453010851
 20
0.00997744864217243
 30
0.0
 11
8.12146453010851
 21
0.0758620706421631
 31
0.0
  0
ARC
  8
0
  6
CONTINUOUS
 62
0
 10
8.51152265866359
 20
0.367704785808871
 30
0.0
 40
0.30222704632682
 50
127.051933747944
 51
156.278658258888
  0
ARC
  8
0
  6
CONTINUOUS
 62
0
 10
8.59566194184021
 20
0.327464308389144
 30
0.0
 40
0.395457253731727
 50
155.845103511334
 51
180.229394009656
  0
ARC
  8
0
  6
CONTINUOUS
 62
0
 10
8.59566194184025
 20
0.324297747658165
 30
0.0
 40
0.39545725373177
 50
179.770605990341
 51
204.154896488664
  0
ARC
  8
0
  6
CONTINUOUS
 62
0
 10
8.51152265866358
 20
0.284057270238443
 30
0.0
 40
0.30222704632681
 50
203.721341741115
 51
232.948066252058
  0
ARC
  8
0
  6
CONTINUOUS
 62
0
 10
8.46063278012346
 20
0.21752527955746
 30
0.0
 40
0.218466065511825
 50
233.086171985511
 51
265.82101051289
  0
LINE
  8
0
  6
CONTINUOUS
 62
0
 10
8.44471261736321
 20
-0.000359942974734295
 30
0.0
 11
8.44471261736327
 21
0.121739202186478
 31
0.0
  0
ARC
  8
0
  6
CONTINUOUS
 62
0
 10
8.45980904099086
 20
0.160547635465915
 30
0.0
 40
0.0416412836011118
 50
229.008983066215
 51
248.744037800749
  0
ARC
  8
0
  6
CONTINUOUS
 62
0
 10
8.49754866572737
 20
0.205019708680515
 30
0.0
 40
0.0999666578473245
 50
207.607536337971
 51
229.401423884881
  0
ARC
  8
0
  6
CONTINUOUS
 62
0
 10
8.60848879281772
 20
0.266392272874023
 30
0.0
 40
0.226735755958174
 50
195.772289335651
 51
208.359030886355
  0
ARC
  8
0
  6
CONTINUOUS
 62
0
 10
8.75989144693517
 20
0.311362951301557
 30
0.0
 40
0.38466759682137
 50
187.251023241662
 51
196.088661758363
  0
ARC
  8
0
  6
CONTINUOUS
 62
0
 10
8.8696015430895
 20
0.326661081676053
 30
0.0
 40
0.495432968560502
 50
179.942337347323
 51
187.404666498173
  0
ARC
  8
0
  6
CONTINUOUS
 62
0
 10
8.86960154308965
 20
0.327658292102732
 30
0.0
 40
0.495432968560647
 50
172.595333501827
 51
180.057662652674
  0
ARC
  8
0
  6
CONTINUOUS
 62
0
 10
8.75989144693513
 20
0.34295642247722
 30
0.0
 40
0.384667596821333
 50
163.911338241634
 51
172.748976758334
  0
ARC
  8
0
  6
CONTINUOUS
 62
0
 10
8.60848879281772
 20
0.387927100904777
 30
0.0
 40
0.226735755958168
 50
151.640969113647
 51
164.227710664353
  0
ARC
  8
0
  6
CONTINUOUS
 62
0
 10
8.49754866572744
 20
0.449299665098094
 30
0.0
 40
0.0999666578474702
 50
130.598576115046
 51
152.392463661954
  0
ARC
  8
0
  6
CONTINUOUS
 62
0
 10
8.45980904099086
 20
0.493771738313121
 30
0.0
 40
0.0416412836008908
 50
111.255962199371
 51
130.991016933922
  0
LINE
  8
0
  6
CONTINUOUS
 62
0
 10
8.44471261736327
 20
0.53258017159232
 30
0.0
 11
8.44471261736327
 21
0.652121999022052
 31
0.0
  0
ARC
  8
0
  6
CONTINUOUS
 62
0
 10
8.46063278012349
 20
0.434236776489766
 30
0.0
 40
0.218466065511914
 50
94.1789894870993
 51
126.913828014479
  0
LINE
  8
0
  6
CONTINUOUS
 62
0
 10
8.47254837083783
 20
0.59233097937254
 30
0.0
 11
8.47254837083783
 21
0.532539959723035
 31
0.0
  0
ARC
  8
0
  6
CONTINUOUS
 62
0
 10
8.45734897911836
 20
0.493771738312953
 30
0.0
 40
0.0416412836010514
 50
49.0089830661649
 51
68.5919396302438
  0
ARC
  8
0
  6
CONTINUOUS
 62
0
 10
8.4196093543818
 20
0.449299665098274
 30
0.0
 40
0.0999666578473558
 50
27.6075363379603
 51
49.4014238848681
  0
ARC
  8
0
  6
CONTINUOUS
 62
0
 10
8.30866922729154
 20
0.387927100904773
 30
0.0
 40
0.226735755958118
 50
15.7722893356555
 51
28.3590308863599
  0
ARC
  8
0
  6
CONTINUOUS
 62
0
 10
8.1572665731741
 20
0.342956422477244
 30
0.0
 40
0.384667596821313
 50
7.25102324166496
 51
16.0886617583654
  0
ARC
  8
0
  6
CONTINUOUS
 62
0
 10
8.04755647701952
 20
0.327658292102311
 30
0.0
 40
0.495432968560747
 50
359.942337347374
 51
7.40466649822216
  0
ARC
  8
0
  6
CONTINUOUS
 62
0
 10
8.04755647701959
 20
0.326661081676501
 30
0.0
 40
0.495432968560676
 50
352.595333501777
 51
0.0576626526251031
  0
ARC
  8
0
  6
CONTINUOUS
 62
0
 10
8.15726657317413
 20
0.311362951301555
 30
0.0
 40
0.384667596821282
 50
343.911338241634
 51
352.748976758336
  0
ARC
  8
0
  6
CONTINUOUS
 62
0
 10
8.30866922729145
 20
0.266392272874028
 30
0.0
 40
0.226735755958204
 50
331.640969113648
 51
344.227710664352
  0
ARC
  8
0
  6
CONTINUOUS
 62
0
 10
8.41960935438177
 20
0.205019708680715
 30
0.0
 40
0.0999666578474821
 50
310.598576115044
 51
332.392463661947
  0
ARC
  8
0
  6
CONTINUOUS
 62
0
 10
8.45734897911833
 20
0.160547635465642
 30
0.0
 40
0.041641283600871
 50
291.408060369888
 51
310.991016933964
  0
LINE
  8
0
  6
CONTINUOUS
 62
0
 10
8.47254837083783
 20
0.121779414055762
 30
0.0
 11
8.47254837083783
 21
-0.000359942974734295
 31
0.0
  0
ARC
  8
0
  6
CONTINUOUS
 62
0
 10
8.45662820807766
 20
0.217525279557654
 30
0.0
 40
0.218466065512012
 50
274.178989487085
 51
306.913828014463
  0
ARC
  8
0
  6
CONTINUOUS
 62
0
 10
8.40573832953753
 20
0.284057270238329
 30
0.0
 40
0.30222704632676
 50
307.051933747962
 51
336.278658258905
  0
ARC
  8
0
  6
CONTINUOUS
 62
0
 10
8.32159904636094
 20
0.324297747658298
 30
0.0
 40
0.39545725373174
 50
335.845103511314
 51
0.229394009639435
  0
ARC
  8
0
  6
CONTINUOUS
 62
0
 10
8.32159904636089
 20
0.327464308388898
 30
0.0
 40
0.395457253731786
 50
359.770605990379
 51
24.1548964887035
  0
ARC
  8
0
  6
CONTINUOUS
 62
0
 10
8.4057383295375
 20
0.367704785808982
 30
0.0
 40
0.30222704632674
 50
23.7213417410986
 51
52.9480662520416
  0
ARC
  8
0
  6
CONTINUOUS
 62
0
 10
8.45662820807764
 20
0.434236776489854
 30
0.0
 40
0.218466065511828
 50
53.0861719855118
 51
85.8210105128904
  0
LINE
  8
0
  6
CONTINUOUS
 62
0
 10
8.47254837083789
 20
0.652121999022052
 30
0.0
 11
8.47254837083783
 21
0.59233097937254
 31
0.0
  0
ENDSEC
  0
EOF
